nColumns=19
nRows=53
DataType=double
version=3
OpenSimVersion=4.1
endheader
time	ground_force_calcn_r_vx	ground_force_calcn_r_vy	ground_force_calcn_r_vz	ground_force_calcn_r_px	ground_force_calcn_r_py	ground_force_calcn_r_pz	ground_force_calcn_r_mx	ground_force_calcn_r_my	ground_force_calcn_r_mz	ground_force_calcn_l_vx	ground_force_calcn_l_vy	ground_force_calcn_l_vz	ground_force_calcn_l_px	ground_force_calcn_l_py	ground_force_calcn_l_pz	ground_force_calcn_l_mx	ground_force_calcn_l_my	ground_force_calcn_l_mz
1.13333	-1.53598	10.6768	-0.240732	0.934748	0	-0.17707	-0.27706	1.92587	-0.043423	0	0	0	0	0	0	0	0	0
1.14167	-5.03921	29.9608	-3.19423	1.00505	0	-0.246767	-0.46215	2.74773	-0.292945	0	0	0	0	0	0	0	0	0
1.15	-11.8638	87.9288	-7.20899	1.04126	0	-0.276852	-0.405228	3.00335	-0.246235	0	0	0	0	0	0	0	0	0
1.15833	-20.92	227.996	-9.76112	1.0529	0	-0.288244	-0.219437	2.39151	-0.102387	0	0	0	0	0	0	0	0	0
1.16667	-30.9342	473.507	-6.11773	1.05189	0	-0.292233	-0.0566203	0.86668	-0.0111975	0	0	0	0	0	0	0	0	0
1.175	-44.9919	761.183	6.85625	1.04593	0	-0.293478	0.0751592	-1.27156	-0.0114534	0	0	0	0	0	0	0	0	0
1.18333	-69.7786	968.278	24.8757	1.0393	0	-0.29378	0.250855	-3.48097	-0.0894285	0	0	0	0	0	0	0	0	0
1.19167	-106.336	1051.16	36.1515	1.03333	0	-0.294144	0.521198	-5.15217	-0.177193	0	0	0	0	0	0	0	0	0
1.2	-146.781	1078.94	31.672	1.02572	0	-0.295314	0.79628	-5.8532	-0.171819	0	0	0	0	0	0	0	0	0
1.20833	-178.678	1126.86	15.5675	1.01459	0	-0.296661	0.871964	-5.49916	-0.0759707	0	0	0	0	0	0	0	0	0
1.21667	-194.89	1217.47	0.820594	1.00046	0	-0.296396	0.685655	-4.28327	-0.00288699	0	0	0	0	0	0	0	0	0
1.225	-199.25	1335.59	-5.86478	0.984449	0	-0.29438	0.37254	-2.49718	0.0109655	0	0	0	0	0	0	0	0	0
1.23333	-189.357	1452.89	-10.4061	0.966547	0	-0.292353	0.0584974	-0.448838	0.00321471	0	0	0	0	0	0	0	0	0
1.24167	-162.871	1547.69	-21.0813	0.946696	0	-0.29151	-0.166626	1.58337	-0.0215673	0	0	0	0	0	0	0	0	0
1.25	-132.314	1611.81	-36.5089	0.926795	0	-0.291361	-0.275434	3.35525	-0.075999	0	0	0	0	0	0	0	0	0
1.25833	-109.421	1649.06	-48.0202	0.908138	0	-0.290476	-0.311277	4.6912	-0.136606	0	0	0	0	0	0	0	0	0
1.26667	-92.4222	1666.19	-51.6567	0.89019	0	-0.288469	-0.307245	5.53902	-0.171726	0	0	0	0	0	0	0	0	0
1.275	-72.7517	1664.56	-52.3035	0.871954	0	-0.286538	-0.260446	5.959	-0.187243	0	0	0	0	0	0	0	0	0
1.28333	-47.4447	1642.53	-55.4388	0.853083	0	-0.285749	-0.174802	6.05159	-0.204254	0	0	0	0	0	0	0	0	0
1.29167	-21.5897	1602.26	-59.6911	0.833896	0	-0.28572	-0.07933	5.88742	-0.219331	0	0	0	0	0	0	0	0	0
1.3	3.78499	1551.05	-60.0229	0.81446	0	-0.285393	0.0133954	5.48932	-0.212427	0	0	0	0	0	0	0	0	0
1.30833	31.2871	1491.78	-54.9673	0.794872	0	-0.28465	0.101817	4.85468	-0.178879	0	0	0	0	0	0	0	0	0
1.31667	59.5101	1419.74	-47.2787	0.775329	0	-0.284366	0.167144	3.98759	-0.13279	0	0	0	0	0	0	0	0	0
1.325	85.0182	1331.54	-38.9794	0.755652	0	-0.285064	0.186236	2.9168	-0.0853859	0	0	0	0	0	0	0	0	0
1.33333	106.134	1230.35	-29.2063	0.735701	0	-0.286386	0.1467	1.7006	-0.0403692	0	0	0	0	0	0	0	0	0
1.34167	124.516	1121.25	-16.9994	0.715462	0	-0.287768	0.0479301	0.431605	-0.00654362	0	0	0	0	0	0	0	0	0
1.35	139.759	1005.48	-3.80459	0.69522	0	-0.289234	-0.105962	-0.762336	0.00288456	0	0	0	0	0	0	0	0	0
1.35833	149.175	882.531	7.71244	0.675141	0	-0.291094	-0.294175	-1.74036	-0.015209	0	0	0	0	0	0	0	0	0
1.36667	151.371	754.9	16.0627	0.654872	0	-0.293146	-0.47858	-2.38672	-0.0507845	0	0	0	0	0	0	0	0	0
1.375	146.737	628.535	21.2948	0.634319	0	-0.294867	-0.616693	-2.64155	-0.0894956	0	0	0	0	0	0	0	0	0
1.38333	136.902	509	23.8795	0.613738	0	-0.29583	-0.675724	-2.51234	-0.117865	0	0	0	0	0	0	0	0	0
1.39167	122.424	398.665	24.1004	0.59415	0	-0.295831	-0.636215	-2.0718	-0.125246	0	0	0	0	0	0	0	0	0
1.4	103.671	299.491	22.2327	0.57684	0	-0.294828	-0.498789	-1.44093	-0.106968	0	0	0	0	0	0	0	0	0
1.40833	82.2903	214.694	18.7884	0.561887	0	-0.292666	-0.291041	-0.759323	-0.0664502	0	0	0	0	0	0	0	0	0
1.41667	60.8494	146.345	14.524	0.548001	0	-0.288503	-0.0634908	-0.152698	-0.0151545	0	0	0	0	0	0	0	0	0
1.425	42.1541	94.5915	10.2934	0.536334	0	-0.280249	0.128392	0.288106	0.0313516	0	0	0	0	0	0	0	0	0
1.43333	26.8117	57.8057	6.80044	0.538663	0	-0.264934	0.240477	0.518466	0.060994	0	0	0	0	0	0	0	0	0
1.44167	14.0936	33.2343	4.38304	0.578066	0	-0.239306	0.235945	0.556384	0.0733778	0	0	0	0	0	0	0	0	0
1.45	4.67638	18.0416	3.00811	0.660369	0	-0.202947	0.111592	0.430527	0.0717826	0	0	0	0	0	0	0	0	0
1.45833	0	0	0	0	0	0	0	0	0	0	0	0	0	0	0	0	0	0
1.46667	0	0	0	0	0	0	0	0	0	0	0	0	0	0	0	0	0	0
1.475	0	0	0	0	0	0	0	0	0	0	0	0	0	0	0	0	0	0
1.48333	0	0	0	0	0	0	0	0	0	0	0	0	0	0	0	0	0	0
1.49167	0	0	0	0	0	0	0	0	0	0	0	0	0	0	0	0	0	0
1.5	0	0	0	0	0	0	0	0	0	0	0	0	0	0	0	0	0	0
1.50833	0	0	0	0	0	0	0	0	0	-6.66513	22.0547	-1.56574	0.964944	0	-0.29992	0.145284	-0.48074	0.0341295
1.51667	0	0	0	0	0	0	0	0	0	-14.611	61.1976	-3.30333	1.00795	0	-0.338587	0.0361055	-0.151226	0.00816291
1.525	0	0	0	0	0	0	0	0	0	-23.2506	153.98	-4.43089	1.02835	0	-0.347661	-0.046741	0.309549	-0.00890749
1.53333	0	0	0	0	0	0	0	0	0	-26.9433	328.481	-3.90646	1.03217	0	-0.346066	-0.0733937	0.894784	-0.0106412
1.54167	0	0	0	0	0	0	0	0	0	-26.0892	568.562	-1.81551	1.02693	0	-0.341785	-0.0722291	1.57409	-0.00502633
1.55	0	0	0	0	0	0	0	0	0	-30.4716	786.01	-0.754023	1.01837	0	-0.337844	-0.0885656	2.28454	-0.00219157
1.55833	0	0	0	0	0	0	0	0	0	-48.2695	898.646	-4.23523	1.00998	0	-0.336213	-0.155533	2.89561	-0.0136467
1.56667	0	0	0	0	0	0	0	0	0	-76.8085	925.457	-11.2481	1.00196	0	-0.338562	-0.267204	3.21952	-0.0391302
